<svg width="55" height="55" viewBox="0 0 55 55" fill="none" xmlns="http://www.w3.org/2000/svg">
<path fill-rule="evenodd" clip-rule="evenodd" d="M27.5 54.125C30.9964 54.125 34.4587 53.4363 37.6889 52.0983C40.9192 50.7603 43.8544 48.7991 46.3267 46.3267C48.7991 43.8544 50.7603 40.9192 52.0983 37.6889C53.4363 34.4587 54.125 30.9964 54.125 27.5C54.125 24.0036 53.4363 20.5413 52.0983 17.3111C50.7603 14.0808 48.7991 11.1456 46.3267 8.67328C43.8544 6.20092 40.9192 4.23974 37.6889 2.90171C34.4587 1.56368 30.9964 0.875 27.5 0.875C20.4386 0.875 13.6664 3.68013 8.67328 8.67328C3.68013 13.6664 0.875 20.4386 0.875 27.5C0.875 34.5614 3.68013 41.3336 8.67328 46.3267C13.6664 51.3199 20.4386 54.125 27.5 54.125ZM26.8137 38.2683L41.6053 20.5183L37.0613 16.7317L24.3405 31.9937L17.7582 25.4085L13.5751 29.5915L22.4501 38.4665L24.7399 40.7563L26.8137 38.2683Z" fill="#4ECB71"/>
</svg>
